<svg width="130px" height="151px" viewBox="0 0 130 151" version="1.1" xmlns="http://www.w3.org/2000/svg" xmlns:xlink="http://www.w3.org/1999/xlink">
                         <defs>
                             <polygon id="path-1" points="0.000698924731 150.825931 0.000698924731 0 129.464624 0 129.464624 150.825931"></polygon>
                             <polygon id="path-3" points="0 60.217 55.167 60.217 55.167 0 0 0"></polygon>
                         </defs>
                         <g id="Page-1" stroke="none" stroke-width="1" fill="none" fill-rule="evenodd">
                             <g id="Mobile" transform="translate(-37.000000, -263.000000)">
                                 <g id="icon-n3" transform="translate(37.000000, 263.000000)">
                                     <g id="Page-1">
                                         <mask id="mask-3" fill="white">
                                             <use xlink:href="#path-1"></use>
                                         </mask>
                                         <g id="Clip-2"></g>
                                         <path d="M124.126376,37.3233551 L70.0729355,1.46365139 C67.1374516,-0.488163426 62.3281505,-0.488163426 59.3919677,1.46365139 L5.34621505,37.3261514 C2.40513978,39.2751699 0.000139784946,43.7555356 0.000139784946,47.2823644 L0.000139784946,103.545943 C0.000139784946,107.070675 2.40513978,111.552438 5.34621505,113.500758 L59.3919677,149.364656 C62.3281505,151.313675 67.1374516,151.313675 70.0729355,149.364656 L124.126376,113.497962 C127.062559,111.548943 129.464763,107.068577 129.464763,103.541749 L129.464763,47.278869 C129.464763,43.7555356 127.062559,39.2751699 124.126376,37.3233551" id="Fill-1" fill="#FFFFFF" mask="url(#mask-3)"></path>
                                     </g>
                                     <g id="Page-1" transform="translate(37.000000, 45.000000)">
                                         <path d="M35.6475,36.0225 L35.6395,34.4925 L35.4265,34.4795 C35.0015,34.4555 34.6315,34.3675 34.2905,34.2795 C34.0025,34.2055 33.7395,34.1325 33.4755,34.0225 L33.4895,32.6705 C33.8645,32.8045 34.1145,32.8765 34.5975,32.9875 C35.2015,33.1265 35.6765,33.1835 36.1895,33.1835 C37.0115,33.1835 37.6865,32.9525 38.1955,32.4945 C38.7105,32.0315 38.9695,31.4325 38.9695,30.7185 C38.9695,30.2825 38.8965,29.8875 38.7505,29.5435 C38.6005,29.1975 38.3945,28.9115 38.1325,28.6945 C37.8825,28.4875 37.3455,28.1915 36.4925,27.7915 L35.3295,27.2495 C34.3865,26.8105 33.7245,26.2885 33.3595,25.6975 C32.9925,25.1045 32.8045,24.3775 32.8045,23.5385 C32.8045,22.6825 33.0785,21.9285 33.6155,21.2975 C34.1685,20.6475 34.7155,20.3895 35.4745,20.1635 L35.6345,20.1155 L35.6475,18.5165 L37.0785,18.5165 L37.0705,20.0625 L37.2925,20.0675 C37.9535,20.0845 38.5745,20.2515 39.1865,20.5795 L39.1885,21.8835 C38.9445,21.7585 38.6445,21.6375 38.2825,21.5195 C37.7235,21.3345 37.1955,21.2405 36.7115,21.2405 C35.9835,21.2405 35.3975,21.4555 34.9695,21.8775 C34.5435,22.3015 34.3265,22.8505 34.3265,23.5085 C34.3265,23.9085 34.4025,24.2785 34.5525,24.6075 C34.7055,24.9415 34.9255,25.2275 35.2085,25.4595 C35.4815,25.6835 35.9875,25.9705 36.7525,26.3355 L37.6615,26.7615 C38.6445,27.2215 39.3715,27.7885 39.8195,28.4445 C40.2645,29.0965 40.4905,29.9515 40.4905,30.9845 C40.4905,31.8275 40.1995,32.5465 39.5995,33.1825 C38.9725,33.8485 38.3255,34.1755 37.2905,34.3515 L37.1015,34.3835 L37.0985,36.0225 L35.6475,36.0225 Z" id="Stroke-1" stroke="#D93284" stroke-width="2" stroke-linecap="round" stroke-linejoin="round"></path>
                                         <path d="M49.7803,40.2334 C53.1973,37.6854 54.1593,34.0614 54.1673,30.8024 C54.1763,27.0574 52.8733,23.4244 50.6373,20.4194 L43.6303,10.9944 L36.6473,10.9944 L29.6663,10.9944 L22.6573,20.4194 C20.4233,23.4244 19.1203,27.0574 19.1293,30.8024 C19.1373,34.4074 20.3143,38.4584 24.6863,41.0054" id="Stroke-3" stroke="#D93284" stroke-width="2" stroke-linecap="round" stroke-linejoin="round"></path>
                                         <path d="M43.8457,8.1787 L29.4497,8.1787 C28.7557,8.1787 28.1867,8.7467 28.1867,9.4417 L28.1867,9.7307 C28.1867,10.4247 28.7557,10.9937 29.4497,10.9937 L43.8457,10.9937 C44.5407,10.9937 45.1097,10.4247 45.1097,9.7307 L45.1097,9.4417 C45.1097,8.7467 44.5407,8.1787 43.8457,8.1787 Z" id="Stroke-5" stroke="#D93284" stroke-width="2" stroke-linecap="round" stroke-linejoin="round"></path>
                                         <path d="M41.5078,1.9473 L40.1498,3.3063 L39.5518,2.7093 C37.9918,1.1493 35.4638,1.1493 33.9038,2.7093 L33.3078,3.3063 L31.9468,1.9473 C30.6858,0.6843 28.6388,0.6843 27.3758,1.9473 L25.6928,3.6313 L30.3828,8.1783 L36.7288,8.1783 L43.0708,8.1783 L47.7638,3.6313 L46.0788,1.9473 C44.8178,0.6843 42.7708,0.6843 41.5078,1.9473 Z" id="Stroke-7" stroke="#D93284" stroke-width="2" stroke-linecap="round" stroke-linejoin="round"></path>
                                         <path d="M30.6201,48.2871 L33.0651,48.2871 C35.4001,48.2871 37.6811,47.5871 39.6111,46.2751 L41.3991,45.0631 C41.6931,44.8641 41.7961,44.4591 41.5991,44.1631 C41.3121,43.7331 40.9491,43.4281 40.5751,43.2101 C39.7011,42.7001 38.6311,42.7451 37.7231,43.1881 C34.4111,44.8061 31.4611,43.4411 31.4611,43.4411 C30.3901,42.7681 29.3621,42.2471 28.3911,41.8491 C24.3051,40.1731 19.6331,40.7991 16.0341,43.3601" id="Stroke-9" stroke="#D93284" stroke-width="2" stroke-linecap="round" stroke-linejoin="round"></path>
                                         <path d="M16.0332,51.9522 C16.0332,51.9522 21.5622,50.8792 31.2322,51.4312 C33.7842,51.5752 36.3262,51.0032 38.5872,49.8112 L53.2922,42.0532 C53.6132,41.8842 53.6972,41.4692 53.4742,41.1822 C52.9492,40.5092 51.7512,39.5752 49.3532,40.2072 C49.0812,40.2792 48.8182,40.3822 48.5592,40.4912 L41.1602,43.6462" id="Stroke-11" stroke="#D93284" stroke-width="2" stroke-linecap="round" stroke-linejoin="round"></path>
                                         <polyline id="Stroke-13" stroke="#D93284" stroke-width="2" stroke-linecap="round" stroke-linejoin="round" points="10.4453 55.4951 15.8843 55.4951 15.8843 41.4611 10.4453 41.4611"></polyline>
                                         <mask id="mask-4" fill="white">
                                             <use xlink:href="#path-3"></use>
                                         </mask>
                                         <g id="Clip-16"></g>
                                         <polygon id="Stroke-15" stroke="#D93284" stroke-width="2" stroke-linecap="round" stroke-linejoin="round" mask="url(#mask-4)" points="1 59.2168 10.445 59.2168 10.445 37.3578 1 37.3578"></polygon>
                                     </g>
                                 </g>
                             </g>
                         </g>
                     </svg>
