

<svg width="130px" height="151px" viewBox="0 0 130 151" version="1.1" xmlns="http://www.w3.org/2000/svg" xmlns:xlink="http://www.w3.org/1999/xlink">
                         <defs>
                             <polygon id="path-1" points="0.000698924731 150.825931 0.000698924731 0 129.464624 0 129.464624 150.825931"></polygon>
                         </defs>
                         <g id="Page-1" stroke="none" stroke-width="1" fill="none" fill-rule="evenodd">
                             <g id="Mobile" transform="translate(-191.000000, -263.000000)">
                                 <g id="icon-n2" transform="translate(191.000000, 263.000000)">
                                     <g id="Page-1">
                                         <mask id="mask-3" fill="white">
                                             <use xlink:href="#path-1"></use>
                                         </mask>
                                         <g id="Clip-2"></g>
                                         <path d="M124.126376,37.3233551 L70.0729355,1.46365139 C67.1374516,-0.488163426 62.3281505,-0.488163426 59.3919677,1.46365139 L5.34621505,37.3261514 C2.40513978,39.2751699 0.000139784946,43.7555356 0.000139784946,47.2823644 L0.000139784946,103.545943 C0.000139784946,107.070675 2.40513978,111.552438 5.34621505,113.500758 L59.3919677,149.364656 C62.3281505,151.313675 67.1374516,151.313675 70.0729355,149.364656 L124.126376,113.497962 C127.062559,111.548943 129.464763,107.068577 129.464763,103.541749 L129.464763,47.278869 C129.464763,43.7555356 127.062559,39.2751699 124.126376,37.3233551" id="Fill-1" fill="#FFFFFF" mask="url(#mask-3)"></path>
                                     </g>
                                     <g id="Page-1" transform="translate(39.000000, 47.000000)" stroke="#D93284" stroke-width="2" stroke-linecap="round" stroke-linejoin="round">
                                         <path d="M41.2744,-7.10542736e-15 L26.1254,-7.10542736e-15 L10.9744,-7.10542736e-15 C10.9744,-7.10542736e-15 8.5264,17.357 21.4344,30.598 L26.1254,30.598 L30.8174,30.598 C43.7224,17.357 41.2744,-7.10542736e-15 41.2744,-7.10542736e-15 Z" id="Stroke-1"></path>
                                         <path d="M41.9482,56.8184 L41.9482,56.8184 C41.9482,52.9954 38.8482,49.8954 35.0242,49.8954 L17.2232,49.8954 C13.4012,49.8954 10.3022,52.9954 10.3022,56.8184 L41.9482,56.8184 Z" id="Stroke-3"></path>
                                         <path d="M34.5674,45.7041 C34.0964,44.9841 33.5644,44.5121 33.0834,44.2031 C31.6024,43.2531 28.9934,41.7071 28.9934,38.9291 C28.9934,35.3691 30.8384,33.7841 30.8384,33.7841 L30.7014,30.5981 L26.1254,30.5981 L21.5484,30.5981 L21.4114,33.7841 C21.4114,33.7841 23.2564,35.3691 23.2564,38.9291 C23.2564,41.7071 20.6484,43.2531 19.1664,44.2031 C18.6854,44.5121 18.1524,44.9841 17.6824,45.7041 C16.3724,47.7111 16.5694,49.8951 16.5694,49.8951 L22.1924,49.8951 L26.1254,49.8951 L30.0564,49.8951 L35.6794,49.8951 C35.6794,49.8951 35.8794,47.7111 34.5674,45.7041 Z" id="Stroke-5"></path>
                                         <path d="M41.4404,5.7705 L51.0294,5.7705 C51.7934,5.7705 52.3674,6.4605 52.2294,7.2125 C51.5434,10.9635 48.7014,20.7345 37.7074,20.7345" id="Stroke-7"></path>
                                         <path d="M10.8086,5.7705 L1.2196,5.7705 C0.4566,5.7705 -0.1164,6.4605 0.0206,7.2125 C0.7056,10.9635 3.5486,20.7345 14.5416,20.7345" id="Stroke-9"></path>
                                         <path d="M36.0059,15.2989 C37.5229,10.6029 37.7459,6.3789 37.7069,3.9259 L28.1519,3.9259" id="Stroke-11"></path>
                                     </g>
                                 </g>
                             </g>
                         </g>
                     </svg>
