<svg width="130px" height="151px" viewBox="0 0 130 151" version="1.1" xmlns="http://www.w3.org/2000/svg" xmlns:xlink="http://www.w3.org/1999/xlink">
                         <defs>
                             <polygon id="path-1" points="0.000698924731 150.79371 0.000698924731 0 129.464624 0 129.464624 150.79371"></polygon>
                         </defs>
                         <g id="Page-1" stroke="none" stroke-width="1" fill="none" fill-rule="evenodd">
                             <g id="Mobile" transform="translate(-37.000000, -66.000000)">
                                 <g id="icon-n1" transform="translate(37.000000, 66.000000)">
                                     <g id="Page-1">
                                         <mask id="mask-3" fill="white">
                                             <use xlink:href="#path-1"></use>
                                         </mask>
                                         <g id="Clip-2"></g>
                                         <path d="M124.126376,37.3153817 L70.0729355,1.46333871 C67.1374516,-0.48805914 62.3281505,-0.48805914 59.3919677,1.46333871 L5.34621505,37.3181774 C2.40513978,39.2667796 0.000139784946,43.7461882 0.000139784946,47.2722634 L0.000139784946,103.523823 C0.000139784946,107.047801 2.40513978,111.528608 5.34621505,113.476511 L59.3919677,149.332747 C62.3281505,151.281349 67.1374516,151.281349 70.0729355,149.332747 L124.126376,113.473715 C127.062559,111.525113 129.464763,107.045704 129.464763,103.519629 L129.464763,47.2687688 C129.464763,43.7461882 127.062559,39.2667796 124.126376,37.3153817" id="Fill-1" fill="#FFFFFF" mask="url(#mask-3)"></path>
                                     </g>
                                     <g id="Page-1" transform="translate(36.000000, 52.000000)" stroke="#0099ff" stroke-width="2" stroke-linecap="round" stroke-linejoin="round">
                                         <path d="M57.144,14.1704 L57.144,43.7594 C57.144,45.3034 55.892,46.5554 54.347,46.5554 L2.798,46.5554 C1.252,46.5554 0,45.3034 0,43.7594 L0,14.1704" id="Stroke-1"></path>
                                         <path d="M9.7886,5.2359 C9.6546,5.5469 9.5776,5.8869 9.5776,6.2489 C9.5776,7.7119 10.7646,8.8969 12.2266,8.8969 C13.6886,8.8969 14.8746,7.7119 14.8746,6.2489 C14.8746,5.8869 14.7986,5.5469 14.6646,5.2359" id="Stroke-3"></path>
                                         <path d="M12.2261,6.2027 L12.2261,0.0007" id="Stroke-5"></path>
                                         <path d="M47.3569,5.2359 C47.4889,5.5469 47.5659,5.8869 47.5659,6.2489 C47.5659,7.7119 46.3799,8.8969 44.9189,8.8969 C43.4559,8.8969 42.2709,7.7119 42.2709,6.2489 C42.2709,5.8869 42.3469,5.5469 42.4799,5.2359" id="Stroke-7"></path>
                                         <path d="M44.9185,6.2027 L44.9185,0.0007" id="Stroke-9"></path>
                                         <path d="M41.9917,1.7193 L15.1537,1.7193" id="Stroke-11"></path>
                                         <path d="M9.3003,1.7193 L2.7983,1.7193 C1.2523,1.7193 0.0003,2.9723 0.0003,4.5163 L0.0003,14.1703 L57.1443,14.1703 L57.1443,4.5163 C57.1443,2.9723 55.8923,1.7193 54.3473,1.7193 L47.8453,1.7193" id="Stroke-13"></path>
                                         <path d="M16.1909,20.3032 L16.1909,26.1112" id="Stroke-15"></path>
                                         <path d="M24.4458,20.3032 L24.4458,26.1112" id="Stroke-17"></path>
                                         <path d="M32.6987,20.3032 L32.6987,26.1112" id="Stroke-19"></path>
                                         <path d="M40.9526,20.3032 L40.9526,26.1112" id="Stroke-21"></path>
                                         <path d="M16.1909,34.52 L16.1909,40.327" id="Stroke-23"></path>
                                         <path d="M24.4458,34.52 L24.4458,40.327" id="Stroke-25"></path>
                                         <path d="M32.6987,34.52 L32.6987,40.327" id="Stroke-27"></path>
                                         <path d="M40.9526,34.52 L40.9526,40.327" id="Stroke-29"></path>
                                         <path d="M11.5376,30.3628 L45.6066,30.3628" id="Stroke-31"></path>
                                     </g>
                                 </g>
                             </g>
                         </g>
                     </svg>
