<svg width="130px" height="151px" viewBox="0 0 130 151" version="1.1" xmlns="http://www.w3.org/2000/svg" xmlns:xlink="http://www.w3.org/1999/xlink">
                         <defs>
                             <polygon id="path-1" points="0.000698924731 150.825931 0.000698924731 0 129.464624 0 129.464624 150.825931"></polygon>
                         </defs>
                         <g id="Page-1" stroke="none" stroke-width="1" fill="none" fill-rule="evenodd">
                             <g id="Mobile" transform="translate(-197.000000, -263.000000)">
                                 <g id="icon-n4" transform="translate(197.000000, 263.000000)">
                                     <g id="Page-1-Copy">
                                         <mask id="mask-3" fill="white">
                                             <use xlink:href="#path-1"></use>
                                         </mask>
                                         <g id="Clip-2"></g>
                                         <path d="M124.126376,37.3233551 L70.0729355,1.46365139 C67.1374516,-0.488163426 62.3281505,-0.488163426 59.3919677,1.46365139 L5.34621505,37.3261514 C2.40513978,39.2751699 0.000139784946,43.7555356 0.000139784946,47.2823644 L0.000139784946,103.545943 C0.000139784946,107.070675 2.40513978,111.552438 5.34621505,113.500758 L59.3919677,149.364656 C62.3281505,151.313675 67.1374516,151.313675 70.0729355,149.364656 L124.126376,113.497962 C127.062559,111.548943 129.464763,107.068577 129.464763,103.541749 L129.464763,47.278869 C129.464763,43.7555356 127.062559,39.2751699 124.126376,37.3233551" id="Fill-1" fill="#FFFFFF" mask="url(#mask-3)"></path>
                                     </g>
                                     <g id="Page-1" transform="translate(36.000000, 56.000000)" stroke="#D93284" stroke-width="2" stroke-linecap="round" stroke-linejoin="round">
                                         <path d="M20.6201,35.3262 L0.8851,35.3262 C0.3961,35.3262 0.0001,34.9302 0.0001,34.4402 L0.0001,0.8852 C0.0001,0.3952 0.3961,0.0002 0.8851,0.0002 L56.2301,0.0002 C56.7191,0.0002 57.1151,0.3952 57.1151,0.8852 L57.1151,34.4402 C57.1151,34.9302 56.7191,35.3262 56.2301,35.3262 L36.4951,35.3262" id="Stroke-1"></path>
                                         <path d="M36.4951,35.3379 C36.4951,30.9539 32.9411,27.4009 28.5571,27.4009 C24.1741,27.4009 20.6201,30.9539 20.6201,35.3379 C20.6201,39.7219 24.1741,43.2749 28.5571,43.2749 C32.9411,43.2749 36.4951,39.7219 36.4951,35.3379 Z" id="Stroke-3"></path>
                                         <path d="M28.5576,39.792 C31.0176,39.792 33.0116,37.798 33.0116,35.338" id="Stroke-5"></path>
                                         <path d="M36.5176,26.8369 C32.1216,22.4399 24.9936,22.4399 20.5976,26.8369" id="Stroke-7"></path>
                                         <polyline id="Stroke-9" points="31.1504 42.9971 36.2334 48.0791 36.2334 43.0131 41.2994 43.0131 36.2154 37.9311"></polyline>
                                         <polyline id="Stroke-11" points="25.9648 42.9971 20.8818 48.0791 20.8818 43.0131 15.8168 43.0131 20.8998 37.9311"></polyline>
                                         <path d="M40.8516,14.7334 L16.5196,14.7334" id="Stroke-13"></path>
                                         <path d="M12.2129,9.0508 L45.1149,9.0508" id="Stroke-15"></path>
                                     </g>
                                 </g>
                             </g>
                         </g>
                     </svg>
