<svg width="130px" height="151px" viewBox="0 0 130 151" version="1.1" xmlns="http://www.w3.org/2000/svg" xmlns:xlink="http://www.w3.org/1999/xlink">
                         <defs>
                             <polygon id="path-1" points="0.000698924731 150.825931 0.000698924731 0 129.464624 0 129.464624 150.825931"></polygon>
                         </defs>
                         <g id="Page-1" stroke="none" stroke-width="1" fill="none" fill-rule="evenodd">
                             <g id="Mobile" transform="translate(-197.000000, -444.000000)">
                                 <g id="icon-n5" transform="translate(197.000000, 444.000000)">
                                     <g id="Page-1-">
                                         <mask id="mask-3" fill="white">
                                             <use xlink:href="#path-1"></use>
                                         </mask>
                                         <g id="Clip-2"></g>
                                         <path d="M124.126376,37.3233551 L70.0729355,1.46365139 C67.1374516,-0.488163426 62.3281505,-0.488163426 59.3919677,1.46365139 L5.34621505,37.3261514 C2.40513978,39.2751699 0.000139784946,43.7555356 0.000139784946,47.2823644 L0.000139784946,103.545943 C0.000139784946,107.070675 2.40513978,111.552438 5.34621505,113.500758 L59.3919677,149.364656 C62.3281505,151.313675 67.1374516,151.313675 70.0729355,149.364656 L124.126376,113.497962 C127.062559,111.548943 129.464763,107.068577 129.464763,103.541749 L129.464763,47.278869 C129.464763,43.7555356 127.062559,39.2751699 124.126376,37.3233551" id="Fill-1" fill="#FFFFFF" mask="url(#mask-3)"></path>
                                     </g>
                                     <g id="Page-1" transform="translate(36.000000, 59.000000)" stroke="#D93284" stroke-width="2" stroke-linecap="round" stroke-linejoin="round">
                                         <path d="M43.6611,17.8267 C36.8851,22.3777 31.8281,14.8817 31.8281,14.8817 C29.4321,11.6047 27.7191,14.9907 27.7191,14.9907 C26.4581,18.0537 24.6401,17.7747 23.5701,17.2497 C23.0301,16.9827 22.7741,16.3517 22.9421,15.7747 L23.7511,12.9977 C24.1061,11.7817 24.9811,10.7837 26.1411,10.2717 L29.2001,8.9277 C30.2941,8.4467 31.3021,8.5557 32.6501,8.8307 L40.6201,10.7187 L43.6611,17.8267 Z" id="Stroke-1"></path>
                                         <path d="M45.3447,21.7612 L40.0967,23.4292 L36.8077,18.8472 C36.8077,18.8472 40.6467,20.4372 43.6607,17.8252 L45.3447,21.7612 Z" id="Stroke-3"></path>
                                         <polygon id="Stroke-5" points="0 0 0 23.827 4.66 25.674 13.013 5.274"></polygon>
                                         <polyline id="Stroke-7" points="12.3379 6.9229 18.2889 9.4299 13.0129 21.7609 7.1899 19.4949"></polyline>
                                         <polygon id="Stroke-9" points="58.9092 1.2891 58.9092 25.1161 54.2502 26.9621 45.8962 6.5641"></polygon>
                                         <polyline id="Stroke-11" points="46.5723 8.2129 40.6213 10.7179 45.8963 23.0499 51.7193 20.7839"></polyline>
                                         <path d="M36.4189,18.8159 L40.9439,24.4919 C41.2899,24.9249 41.3889,25.5069 41.2039,26.0329 C40.7459,27.3329 39.0739,27.6859 38.1299,26.6819 L31.9159,20.0899" id="Stroke-13"></path>
                                         <path d="M29.1689,23.19 L34.3979,28.661 C35.8079,30.132 38.3069,29.596 38.9319,27.655 C38.9399,27.626 38.9499,27.593 38.9599,27.563" id="Stroke-15"></path>
                                         <path d="M26.6636,25.7612 L30.9876,30.5642 C31.4686,31.0992 32.1296,31.4642 32.8486,31.5032 C33.6646,31.5472 34.6976,31.2382 35.5656,29.8162" id="Stroke-17"></path>
                                         <path d="M26.9336,9.9238 C23.0506,9.0338 18.2886,9.4298 18.2886,9.4298" id="Stroke-19"></path>
                                         <path d="M13.937,19.6001 C13.937,19.6001 19.915,23.7401 26.422,30.1141 L28.448,32.0601 C29.464,33.0361 31.203,32.5061 31.425,31.1171 C31.428,31.0971 31.43,31.0791 31.433,31.0581" id="Stroke-21"></path>
                                         <path d="M17.3706,22.1743 L16.8366,22.7703 C16.3166,23.3533 16.3856,24.2493 16.9896,24.7443 C17.6226,25.2643 18.5526,25.1903 19.0956,24.5763 L19.6156,23.9883" id="Stroke-23"></path>
                                         <path d="M22.3691,26.3472 L21.2011,27.6202 C20.5781,28.2992 19.5281,28.3612 18.8301,27.7562 C18.1191,27.1422 18.0421,26.0652 18.6591,25.3532 L19.7471,24.0992" id="Stroke-25"></path>
                                         <path d="M22.3691,26.3472 L21.6131,27.1702 C20.9861,27.8562 21.0281,28.9162 21.7081,29.5502 C22.3881,30.1852 23.4521,30.1502 24.0901,29.4742 L24.8801,28.6342" id="Stroke-27"></path>
                                         <path d="M27.1938,30.856 L26.7778,31.282 C26.1668,31.907 25.1638,31.923 24.5308,31.32 C23.8958,30.712 23.8698,29.708 24.4718,29.068 L24.7708,28.752" id="Stroke-29"></path>
                                     </g>
                                 </g>
                             </g>
                         </g>
                     </svg>
